<mxfile host="app.diagrams.net" modified="2023-04-01T08:02:07.035Z" agent="Mozilla/5.0 (Windows NT 10.0; Win64; x64) AppleWebKit/537.36 (KHTML, like Gecko) Chrome/111.0.0.0 Safari/537.36" etag="-nL0r-0QxV0_zphtjdnf" version="21.1.2" type="device">
  <diagram name="Страница 1" id="CUUnTYpt4S2qyFVS19bJ">
    <mxGraphModel dx="1434" dy="796" grid="1" gridSize="10" guides="1" tooltips="1" connect="1" arrows="1" fold="1" page="1" pageScale="1" pageWidth="827" pageHeight="1169" math="0" shadow="0">
      <root>
        <mxCell id="0" />
        <mxCell id="1" parent="0" />
        <mxCell id="vxl8GKG3vT17uthpcgam-5" value="&lt;i&gt;Library&lt;/i&gt;" style="swimlane;fontStyle=1;align=center;verticalAlign=top;childLayout=stackLayout;horizontal=1;startSize=26;horizontalStack=0;resizeParent=1;resizeParentMax=0;resizeLast=0;collapsible=1;marginBottom=0;whiteSpace=wrap;html=1;" parent="1" vertex="1">
          <mxGeometry x="60" y="50" width="270" height="190" as="geometry">
            <mxRectangle x="60" y="50" width="80" height="30" as="alternateBounds" />
          </mxGeometry>
        </mxCell>
        <mxCell id="vxl8GKG3vT17uthpcgam-6" value="-ID:string&lt;br&gt;-Name:string&lt;br&gt;-Readers:int" style="text;strokeColor=none;fillColor=none;align=left;verticalAlign=top;spacingLeft=4;spacingRight=4;overflow=hidden;rotatable=0;points=[[0,0.5],[1,0.5]];portConstraint=eastwest;whiteSpace=wrap;html=1;" parent="vxl8GKG3vT17uthpcgam-5" vertex="1">
          <mxGeometry y="26" width="270" height="44" as="geometry" />
        </mxCell>
        <mxCell id="vxl8GKG3vT17uthpcgam-7" value="" style="line;strokeWidth=1;fillColor=none;align=left;verticalAlign=middle;spacingTop=-1;spacingLeft=3;spacingRight=3;rotatable=0;labelPosition=right;points=[];portConstraint=eastwest;strokeColor=inherit;" parent="vxl8GKG3vT17uthpcgam-5" vertex="1">
          <mxGeometry y="70" width="270" height="18" as="geometry" />
        </mxCell>
        <mxCell id="vxl8GKG3vT17uthpcgam-8" value="+getID(): string&lt;br&gt;+setID(): int&lt;br&gt;+getName(): string&lt;br style=&quot;border-color: var(--border-color);&quot;&gt;+setName(): int&lt;br&gt;+getReaders(): int&lt;br style=&quot;border-color: var(--border-color);&quot;&gt;+setReaders(): int" style="text;strokeColor=none;fillColor=none;align=left;verticalAlign=top;spacingLeft=4;spacingRight=4;overflow=hidden;rotatable=0;points=[[0,0.5],[1,0.5]];portConstraint=eastwest;whiteSpace=wrap;html=1;" parent="vxl8GKG3vT17uthpcgam-5" vertex="1">
          <mxGeometry y="88" width="270" height="102" as="geometry" />
        </mxCell>
        <mxCell id="vxl8GKG3vT17uthpcgam-9" value="Event" style="swimlane;fontStyle=1;align=center;verticalAlign=top;childLayout=stackLayout;horizontal=1;startSize=26;horizontalStack=0;resizeParent=1;resizeParentMax=0;resizeLast=0;collapsible=1;marginBottom=0;whiteSpace=wrap;html=1;" parent="1" vertex="1">
          <mxGeometry x="460" y="50" width="270" height="140" as="geometry" />
        </mxCell>
        <mxCell id="vxl8GKG3vT17uthpcgam-10" value="-Date:string&lt;br&gt;-Name:string" style="text;strokeColor=none;fillColor=none;align=left;verticalAlign=top;spacingLeft=4;spacingRight=4;overflow=hidden;rotatable=0;points=[[0,0.5],[1,0.5]];portConstraint=eastwest;whiteSpace=wrap;html=1;" parent="vxl8GKG3vT17uthpcgam-9" vertex="1">
          <mxGeometry y="26" width="270" height="34" as="geometry" />
        </mxCell>
        <mxCell id="vxl8GKG3vT17uthpcgam-11" value="" style="line;strokeWidth=1;fillColor=none;align=left;verticalAlign=middle;spacingTop=-1;spacingLeft=3;spacingRight=3;rotatable=0;labelPosition=right;points=[];portConstraint=eastwest;strokeColor=inherit;" parent="vxl8GKG3vT17uthpcgam-9" vertex="1">
          <mxGeometry y="60" width="270" height="8" as="geometry" />
        </mxCell>
        <mxCell id="vxl8GKG3vT17uthpcgam-12" value="+getDate(): string&lt;br style=&quot;border-color: var(--border-color);&quot;&gt;+setDate(): int&lt;br style=&quot;border-color: var(--border-color);&quot;&gt;+getName(): string&lt;br style=&quot;border-color: var(--border-color);&quot;&gt;+setName(): int" style="text;strokeColor=none;fillColor=none;align=left;verticalAlign=top;spacingLeft=4;spacingRight=4;overflow=hidden;rotatable=0;points=[[0,0.5],[1,0.5]];portConstraint=eastwest;whiteSpace=wrap;html=1;" parent="vxl8GKG3vT17uthpcgam-9" vertex="1">
          <mxGeometry y="68" width="270" height="72" as="geometry" />
        </mxCell>
        <mxCell id="vxl8GKG3vT17uthpcgam-23" value="" style="html=1;verticalAlign=bottom;endArrow=block;edgeStyle=elbowEdgeStyle;elbow=vertical;curved=0;rounded=0;exitX=0;exitY=0.306;exitDx=0;exitDy=0;exitPerimeter=0;strokeColor=default;endFill=0;" parent="1" source="vxl8GKG3vT17uthpcgam-12" target="vxl8GKG3vT17uthpcgam-8" edge="1">
          <mxGeometry width="80" relative="1" as="geometry">
            <mxPoint x="450" y="140" as="sourcePoint" />
            <mxPoint x="350" y="138" as="targetPoint" />
            <Array as="points">
              <mxPoint x="350" y="140" />
            </Array>
          </mxGeometry>
        </mxCell>
      </root>
    </mxGraphModel>
  </diagram>
</mxfile>
